<?xml version="1.0" encoding="UTF-8"?>
<svg xmlns="http://www.w3.org/2000/svg" xmlns:xlink="http://www.w3.org/1999/xlink" width="16px" height="16px" viewBox="0 0 16 16" version="1.1">
<g id="surface1">
<path style=" stroke:none;fill-rule:nonzero;fill:rgb(0%,0%,0%);fill-opacity:1;" d="M 8.554688 2.296875 C 8.429688 2.109375 8.222656 2 8 2 C 7.777344 2 7.570312 2.109375 7.445312 2.296875 L 4.925781 6.054688 L 1.832031 2.566406 C 1.632812 2.34375 1.308594 2.28125 1.039062 2.414062 C 0.769531 2.546875 0.621094 2.84375 0.679688 3.136719 L 2.46875 12.378906 C 2.652344 13.320312 3.476562 14 4.433594 14 L 11.566406 14 C 12.523438 14 13.347656 13.320312 13.53125 12.378906 L 15.320312 3.136719 C 15.378906 2.84375 15.230469 2.546875 14.960938 2.414062 C 14.691406 2.28125 14.367188 2.34375 14.167969 2.566406 L 11.074219 6.054688 Z M 8.554688 2.296875 "/>
</g>
</svg>
